<svg id="Layer_1" xmlns="http://www.w3.org/2000/svg" viewBox="0 0 32 32"><style>.st0{fill:#fff}</style><path class="st0" d="M16.6 14.5c.4 0 .7-.1 1-.2.3-.1.5-.3.6-.6s.1-.5.1-.8c0-.2-.1-.5-.2-.7s-.3-.4-.6-.5c-.3-.1-.6-.2-1-.2h-2v3h2.1zM18.1 17.1c-.3-.1-.7-.1-1.1-.1H14.6v3.5h2.5c.4 0 .8-.1 1.2-.2.4-.2.6-.4.8-.6s.2-.6.2-.9c0-.4-.1-.8-.3-1-.2-.4-.5-.6-.9-.7z"/><path class="st0" d="M16 0C7.2 0 0 7.2 0 16s7.2 16 16 16 16-7.2 16-16S24.8 0 16 0zm6.6 20.5c-.3.5-.6 1-1.1 1.3-.6.4-1.2.7-1.8.9s-1.5.3-2.6.3H11V9h5.4c1.1 0 2 0 2.5.1s1 .2 1.6.5c.5.3.9.6 1.2 1.1.3.5.4 1 .4 1.6 0 .7-.2 1.3-.5 1.8-.4.5-.9.9-1.5 1.2v.1c.9.2 1.6.6 2.2 1.1s.8 1.3.8 2.3c-.1.6-.2 1.2-.5 1.7z"/></svg>