<svg id="Слой_1" xmlns="http://www.w3.org/2000/svg" viewBox="0 0 49 49"><style>.st0{fill:#323232}</style><g id="Layer_2"><path class="st0" d="M24.5 0C11 0 0 11 0 24.5S11 49 24.5 49 49 38 49 24.5 38 0 24.5 0zm0 47C12.1 47 2 36.9 2 24.5S12.1 2 24.5 2 47 12.1 47 24.5 36.9 47 24.5 47z"/><path class="st0" d="M34.8 19.3c.9-1.7 1.9-5 .4-9.5-.1-.4-.5-.6-.9-.7-.4 0-.8.2-1 .5-1.3 2.3-4 5.9-6 6.1h-.1c-1.5-.3-2.7-.3-2.8-.3-.1 0-1.3 0-2.8.3h-.1c-2-.2-4.8-3.8-6-6.1-.2-.3-.6-.5-1-.5s-.7.3-.9.7c-1.4 4.5-.4 7.8.4 9.5-1.7.2-4 .8-4.8 2.2-.4.7-.4 1.5 0 2.2.5.9 1.4 1.2 2.3 1.2.8 0 1.7-.2 2.3-.5 0 .5 0 1.1.1 1.6.3 1.5 1.1 3.6 1.7 5.2.2.5.4 1 .5 1.3-.2.6-.7 1.8-.8 2.5-.1.8.1 2.1 1.1 3.3 1.4 1.7 4 2.5 7.6 2.5 3.6 0 6.2-.8 7.6-2.5 1-1.2 1.2-2.5 1.1-3.3-.1-.7-.5-1.9-.8-2.5.1-.3.3-.8.5-1.3.6-1.6 1.5-3.7 1.8-5.2.1-.5.1-1.1.1-1.6.7.2 1.5.5 2.3.5.9 0 1.8-.3 2.3-1.2.4-.7.4-1.5 0-2.2-.1-1.4-2.3-1.9-4.1-2.2zm-.9-6.6c.4 3.1-.5 5.2-1 6.1-.2-.3-.5-.6-.8-.9-.5-.5-1.2-.9-1.9-1.3 1.4-1 2.7-2.6 3.7-3.9zm-18.8 0c.9 1.3 2.2 2.9 3.7 4-.7.3-1.3.7-1.8 1.3-.3.3-.5.6-.8.9-.6-1-1.5-3.1-1.1-6.2zm-3.9 10.1c-.1-.2-.1-.2 0-.2.2-.4 1.4-1 3.6-1.2l-.3.9c-1.3.5-3 1-3.3.5zm21.6 2.9c-.3 1.3-1.1 3.4-1.6 4.8-.4 1-.6 1.6-.7 1.9l-.1.3.1.3c.3.7.7 1.9.8 2.4 0 0 .1.9-.6 1.7-.7.8-2.4 1.8-6.1 1.8s-5.4-1-6.1-1.8c-.7-.9-.7-1.7-.6-1.7.1-.4.5-1.6.8-2.4l.1-.3-.1-.3c-.1-.3-.3-.9-.7-1.9-.6-1.5-1.4-3.5-1.6-4.8-.4-2.2.4-4.6 2.1-6.4 1.5-1.5 4.9-1.9 6.1-1.9 1.2 0 4.5.3 6.1 1.9 2 2.1 2.4 4.7 2.1 6.4zm5-2.9c-.3.5-2 .1-3.2-.6l-.3-.9c2.2.2 3.4.8 3.6 1.2 0 .1 0 .1-.1.3z"/></g></svg>