<svg id="Layer_1" xmlns="http://www.w3.org/2000/svg" viewBox="0 0 61 61"><style>.st1{fill:#231f20}</style><circle cx="30.5" cy="30.5" r="30.5" fill="#fff"/><path class="st1" d="M20 18.3c-.9 2.7-1.7 5.4-2.5 8.1-.5-2.9-.9-5.8-1-8.7 0-.4-1.9-.1-1.9.5.1 4.2.8 8.4 1.7 12.4-1.2 4.6-2.3 9.2-3.6 13.8-.1.4 1.8.1 1.9-.3.9-3.3 1.7-6.5 2.6-9.8.8 3.2 1.6 6.4 2.3 9.7.1.5 2 0 1.9-.5-.9-4.5-2.1-8.8-3.1-13.2 1.1-4.1 2.2-8.2 3.6-12.2.1-.5-1.7-.3-1.9.2zM34.4 18.8c0-1-1.9-.8-2 .1v.2c0 .1-.1.1-.1.2-1 4.5-2.6 8.7-4.1 13.1-.6 1.9-1.1 3.9-1.7 5.9-.1-6.6-.1-13.2-.2-19.9 0-1-2-.8-2 .1 0 8.3 0 16.6.3 25v.3c0 .1 0 .3.1.4.1.9 2 .5 1.9-.3 1.6-4.2 2.5-8.6 3.9-12.8.5-1.6 1-3.1 1.6-4.7-.1 6 .1 12 .2 18 0 1 1.6.8 1.9.1 0 0 0-.1.1-.1.1-.2.1-.4 0-.6-.1-8.4-.3-16.7.1-25zM47.3 17.7c-3.2.4-6.3.2-9.5 0-.5 0-2.2.9-1.2.9 1.1.1 2.2.1 3.3.1-.1.1-.2.2-.2.3.3 8.4-1.1 17.2.2 25.6.1.4 2 0 1.9-.5-1.2-8.2.1-17-.2-25.3 1.8 0 3.6-.1 5.3-.3 1-.1 1.8-1 .4-.8z"/></svg>