<svg id="Слой_1" xmlns="http://www.w3.org/2000/svg" viewBox="0 0 49 49"><style>.st0{fill:#323232}</style><g id="Layer_2"><path class="st0" d="M24.5 0C11 0 0 11 0 24.5S11 49 24.5 49 49 38 49 24.5 38 0 24.5 0zm0 47C12.1 47 2 36.9 2 24.5S12.1 2 24.5 2 47 12.1 47 24.5 36.9 47 24.5 47z"/><path class="st0" d="M24.5 7.6c-4.4 0-7.9 3.3-8.4 7.5H16V32h17V15.1h-.1c-.5-4.2-4-7.5-8.4-7.5zM31 30H18v-9.3c.3.3.7.6 1.5.6 1.3 0 2.1-.7 2.1-1.6v-.9c0-.5.4-.9.9-.9s.9.4.9.9v3.3s0 1.8 2.1 1.8 2.1-1.8 2.1-1.8v-2.2c0-.7.6-1.3 1.3-1.3s1.3.6 1.3 1.3v.1s0 .6.7.9L31 30zM23 40.1c0 .8.7 1.5 1.5 1.5s1.5-.7 1.5-1.5V33h-3v7.1z"/></g></svg>