<svg id="Layer_1" xmlns="http://www.w3.org/2000/svg" viewBox="0 0 49 49"><style>.st0{fill:#323232}</style><path class="st0" d="M24.5 0C11 0 0 11 0 24.5S11 49 24.5 49 49 38 49 24.5 38 0 24.5 0zm0 47C12.1 47 2 36.9 2 24.5S12.1 2 24.5 2 47 12.1 47 24.5 36.9 47 24.5 47z"/><path class="st0" d="M34.8 26.8c-.5-9.5-9.2-18.7-9.6-19.1l-.1-.1-.1-.1h-.1-.1H24.5 24.2h-.1s-.1 0-.1.1l-.1.1c-.4.4-9.1 9.6-9.6 19.1v1.3c.4 10.3 10 12.8 10.1 12.8h.4c.1 0 9.7-2.6 10.1-12.8V27c-.1-.1-.1-.2-.1-.2zm-18-3.6c2.2 2.1 5.4 3.5 6.7 4.1v4.6c-2.4-1.2-6.2-3.3-7.3-5.2.1-1.2.3-2.3.6-3.5zm2-5c1.5 1.7 3.6 2.6 4.7 3.1v3.9c-1.7-.8-4.4-2.2-6-4 .4-1.1.8-2.1 1.3-3zm12.7 2.9c-1.6 1.8-4.4 3.3-6 4v-3.9c1.1-.4 3.2-1.4 4.7-3.1.5 1 .9 2 1.3 3zm-6-2.1v-8c1 1.3 2.4 3.1 3.7 5.2-1 1.4-2.6 2.3-3.7 2.8zm0 12.9v-4.6c1.4-.6 4.5-2 6.7-4.1.3 1.1.5 2.3.6 3.4-1.1 1.9-4.9 4.1-7.3 5.3zm-2-12.9c-1.1-.5-2.7-1.4-3.6-2.8 1.3-2.1 2.6-3.9 3.6-5.2v8zm-7.1 10.8c2.3 2 5.7 3.6 7.1 4.3v4.4c-2.1-.9-6.2-3.3-7.1-8.7zm9.1 8.7v-4.4c1.4-.7 4.8-2.3 7.1-4.3-.9 5.4-5 7.8-7.1 8.7z"/></svg>