<svg id="Layer_1" xmlns="http://www.w3.org/2000/svg" viewBox="0 0 49 49"><style>.st0{fill:#323232}</style><path class="st0" d="M24.5 0C11 0 0 11 0 24.5S11 49 24.5 49 49 38 49 24.5 38 0 24.5 0zm0 47C12.1 47 2 36.9 2 24.5S12.1 2 24.5 2 47 12.1 47 24.5 36.9 47 24.5 47z"/><path class="st0" d="M28.9 13.1c0-2.8-2.3-5-5-5s-5 2.3-5 5v14.6c-1.3 1.3-2 3.1-2 4.9 0 3.9 3.2 7.1 7.1 7.1s7.1-3.2 7.1-7.1c0-1.9-.8-3.8-2.2-5.1V13.1zm.2 19.6c0 2.8-2.3 5.1-5.1 5.1s-5.1-2.3-5.1-5.1c0-1.6.8-3.1 2-4V13.1c0-1.7 1.4-3 3-3s3 1.4 3 3v15.4c1.4.9 2.2 2.5 2.2 4.2z"/><path class="st0" d="M25 29.6V13.2c0-.6-.4-1-1-1s-1 .4-1 1v16.4c-1.2.4-2 1.5-2 2.8 0 1.7 1.3 3 3 3s3-1.3 3-3c0-1.3-.8-2.4-2-2.8zM31 12h6v2h-6zM31 16h6v2h-6zM31 20h6v2h-6zM31 24h6v2h-6z"/></svg>