<svg id="Слой_1" xmlns="http://www.w3.org/2000/svg" viewBox="0 0 560 220"><style>.st0{fill:#f8f7f4}.st1{fill:#92cdff}.st2{fill:#fe9e90}</style><path class="st0" d="M560 205c0 8.2-6.8 15-15 15H15c-8.2 0-15-6.8-15-15V15C0 6.8 6.8 0 15 0h530c8.2 0 15 6.8 15 15v190z"/><path class="st0" d="M545 0H20.7L0 20.7V205c0 8.2 6.8 15 15 15h530c8.2 0 15-6.8 15-15V15c0-8.2-6.8-15-15-15zM10.2.8c-4.5 1.5-7.9 5-9.5 9.5L10.2.8z"/><path class="st1" d="M20.7 0H15c-1.7 0-3.2.3-4.7.8L.8 10.3C.3 11.8 0 13.4 0 15v5.7L20.7 0z"/><path class="st2" d="M0 40.1L40.1 0h-9.7L0 30.4v9.7z"/><path class="st1" d="M0 59.5L59.5 0h-9.7L0 49.8v9.7z"/><path class="st2" d="M0 78.9L78.9 0h-9.7L0 69.2v9.7z"/><path class="st1" d="M0 98.3L98.3 0h-9.7L0 88.6v9.7z"/><path class="st2" d="M0 117.7L117.7 0H108L0 108v9.7z"/><path class="st1" d="M0 137.1L137.1 0h-9.7L0 127.4v9.7z"/><path class="st2" d="M0 156.4L156.4 0h-9.7L0 146.7v9.7z"/><path class="st1" d="M0 175.8L175.8 0h-9.7L0 166.1v9.7z"/><path class="st2" d="M0 195.2L195.2 0h-9.7L0 185.5v9.7z"/><path class="st1" d="M204.9 0L0 204.9v.1c0 2.7.8 5.3 2.1 7.5L214.6 0h-9.7z"/><path class="st2" d="M14 220L234 0h-9.7L6.8 217.5c2.1 1.4 4.6 2.3 7.2 2.5z"/><path class="st1" d="M33.4 220l220-220h-9.7l-220 220h9.7z"/><path class="st2" d="M52.8 220l220-220h-9.7l-220 220h9.7z"/><path class="st1" d="M72.1 220l220-220h-9.7l-220 220h9.7z"/><path class="st2" d="M91.5 220l220-220h-9.7l-220 220h9.7z"/><path class="st1" d="M110.9 220l220-220h-9.7l-220 220h9.7z"/><path class="st2" d="M130.3 220l220-220h-9.7l-220 220h9.7z"/><path class="st1" d="M149.7 220l220-220H360L140 220h9.7z"/><path class="st2" d="M169.1 220l220-220h-9.7l-220 220h9.7z"/><path class="st1" d="M188.5 220l220-220h-9.7l-220 220h9.7z"/><path class="st2" d="M207.9 220l220-220h-9.7l-220 220h9.7z"/><path class="st1" d="M227.2 220l220-220h-9.7l-220 220h9.7z"/><path class="st2" d="M246.6 220l220-220h-9.7l-220 220h9.7z"/><path class="st1" d="M266 220L486 0h-9.7l-220 220h9.7z"/><path class="st2" d="M285.4 220l220-220h-9.7l-220 220h9.7z"/><path class="st1" d="M304.8 220l220-220h-9.7l-220 220h9.7z"/><path class="st2" d="M324.2 220l220-220h-9.7l-220 220h9.7z"/><path class="st1" d="M343.6 220L557.2 6.3c-1.3-1.9-3.1-3.5-5.1-4.6L333.9 220h9.7z"/><path class="st2" d="M363 220L560 23v-8c0-.6 0-1.1-.1-1.6L353.3 220h9.7z"/><path class="st1" d="M382.3 220L560 42.3v-9.7L372.6 220h9.7z"/><path class="st2" d="M401.7 220L560 61.7V52L392 220h9.7z"/><path class="st1" d="M421.1 220L560 81.1v-9.7L411.4 220h9.7z"/><path class="st2" d="M440.5 220L560 100.5v-9.7L430.8 220h9.7z"/><path class="st1" d="M459.9 220L560 119.9v-9.7L450.2 220h9.7z"/><path class="st2" d="M479.3 220l80.7-80.7v-9.7L469.6 220h9.7z"/><path class="st1" d="M498.7 220l61.3-61.3V149l-71 71h9.7z"/><path class="st2" d="M518.1 220l41.9-41.9v-9.7L508.4 220h9.7z"/><path class="st1" d="M537.4 220l22.6-22.6v-9.7L527.7 220h9.7z"/><path class="st2" d="M559.8 207.3l-12.5 12.5c6.4-1 11.5-6.1 12.5-12.5z"/></svg>