<svg xmlns="http://www.w3.org/2000/svg" viewBox="0 0 113.47 38.69"><defs><style>.cls-1{fill:#fff}</style></defs><g id="Слой_2" data-name="Слой 2"><g id="Layer_1" data-name="Layer 1"><path class="cls-1" d="M46.84 28.2a2.29 2.29 0 0 0 .58-.11v1.4a3.53 3.53 0 0 1-1.24.22 1.74 1.74 0 0 1-1.75-1 5.12 5.12 0 0 1-3.3 1.13c-1.59 0-3.06-.87-3.06-2.68 0-2.24 2.08-2.93 3.9-2.93a11.63 11.63 0 0 1 2.28.26v-.31c0-1.09-.8-1.86-2.3-1.86a7.75 7.75 0 0 0-3.15.68v-1.8a10.63 10.63 0 0 1 3.35-.58c2.48 0 4 1.18 4 3.83v3.14a.57.57 0 0 0 .51.62.55.55 0 0 0 .18-.01zM40.08 27a1.42 1.42 0 0 0 1.53 1.3h.11a3.57 3.57 0 0 0 2.53-1v-1.51a10.15 10.15 0 0 0-1.9-.22c-1.1 0-2.27.35-2.27 1.45zM53.06 20.6a5.31 5.31 0 0 1 2.7.67v1.79a4.25 4.25 0 0 0-2.42-.73 2.89 2.89 0 0 0-.48 5.76 3.84 3.84 0 0 0 .48 0 5.19 5.19 0 0 0 2.55-.67v1.8a6.59 6.59 0 0 1-2.9.6 4.41 4.41 0 0 1-4.71-4.11v-.43a4.53 4.53 0 0 1 4.39-4.68 2.67 2.67 0 0 1 .39 0zM65.84 28.2a2.29 2.29 0 0 0 .58-.11v1.4a3.53 3.53 0 0 1-1.24.22 1.74 1.74 0 0 1-1.75-1 5.12 5.12 0 0 1-3.3 1.13c-1.59 0-3.06-.87-3.06-2.68 0-2.24 2.08-2.93 3.9-2.93a11.63 11.63 0 0 1 2.28.26v-.31c0-1.09-.8-1.86-2.3-1.86a7.75 7.75 0 0 0-3.15.68v-1.8a10.63 10.63 0 0 1 3.35-.58c2.48 0 4 1.18 4 3.83v3.14a.57.57 0 0 0 .51.62.55.55 0 0 0 .18-.01zM59.08 27a1.42 1.42 0 0 0 1.53 1.3h.11a3.57 3.57 0 0 0 2.53-1v-1.51a10.15 10.15 0 0 0-1.9-.22c-1.11 0-2.27.35-2.27 1.45zM76.67 16.83v12.76h-1.76V28.2a4.08 4.08 0 0 1-3.35 1.62 4.62 4.62 0 0 1 0-9.22 4 4 0 0 1 3.15 1.4v-5.17h2zm-4.76 5.48a2.9 2.9 0 0 0 0 5.8 3 3 0 0 0 2.79-1.84v-2.13a3.05 3.05 0 0 0-2.79-1.83zM83 20.6c3.48 0 4.68 2.81 4.12 5.34h-6.59c.22 1.57 1.75 2.22 3.35 2.22a6.48 6.48 0 0 0 2.77-.62v1.68a7.51 7.51 0 0 1-3.14.6c-2.68 0-5-1.53-5-4.61a4.4 4.4 0 0 1 4.16-4.61zm.09 1.62a2.39 2.39 0 0 0-2.57 2.2v.06h4.85a2.06 2.06 0 0 0-1.84-2.26 1.62 1.62 0 0 0-.44 0zM89.1 29.59v-8.75h1.73v1.09a4 4 0 0 1 2.92-1.33 3 3 0 0 1 2.73 1.4 4.35 4.35 0 0 1 3.06-1.4 3.23 3.23 0 0 1 3.32 3.52v5.47h-2v-5.41a1.67 1.67 0 0 0-1.49-1.83h-.24A3 3 0 0 0 97 23.52v6.07h-2v-5.41a1.67 1.67 0 0 0-1.49-1.83h-.24a3.11 3.11 0 0 0-2.32 1.35v5.9H89.1zM111.47 20.84h2l-4.1 9.93c-1 2.28-2.19 3-3.52 3a5.58 5.58 0 0 1-1.15-.15V32a3 3 0 0 0 .89.13c1 0 1.66-.67 2.17-2l.18-.44-4.16-8.82h2.13l3 6.6zM40.66 1.51v5a4 4 0 0 1 2.83-1.2 3.41 3.41 0 0 1 3.61 3.2 2.29 2.29 0 0 1 0 .37v5.41h-2V9.13A1.9 1.9 0 0 0 43.41 7a1.61 1.61 0 0 0-.31 0 3.08 3.08 0 0 0-2.44 1.46v5.8h-2V1.51zM52.43 2.4v3.12h3.17v1.71h-3.17v4c0 1.15.53 1.53 1.66 1.53a4.66 4.66 0 0 0 1.77-.35v1.68a7 7 0 0 1-2.35.38 2.68 2.68 0 0 1-3-2.33 2.53 2.53 0 0 1 0-.55V7.21h-1.6V5.5h1.57V2.86zM58.1 14.27V5.52h1.73v1.09a4 4 0 0 1 2.92-1.33 3 3 0 0 1 2.73 1.4 4.35 4.35 0 0 1 3.06-1.4 3.23 3.23 0 0 1 3.32 3.52v5.47h-2V8.86A1.67 1.67 0 0 0 68.37 7h-.24A3 3 0 0 0 66 8.2v6.07h-2V8.86A1.67 1.67 0 0 0 62.47 7h-.24a3.11 3.11 0 0 0-2.32 1.35v5.91H58.1zM74.72 1.5h1.95v12.76h-1.95zM15.44 0h-.16L0 1.6v28l15.28 9.09 15.28-9.09v-28zm13.12 28.45l-13.28 7.9L2 28.45V17l13.22 7.87v1.43l-9.07-5.4v1.38l9.11 5.47v1.46l-9.1-5.42v1.38l9.11 5.47 9.19-5.5V19.2l4.1-2.45v11.7zm0-13.16l-3.65 2.14-1.68 1-8-4.76v1.38l6.84 4.07H22l-.15.09-1 .57-5.64-3.36v1.38l4.45 2.65-1.05.7-3.36-2v1.38l2.21 1.3-2.25 1.35-13.15-7.82 13.17-7.92zm0-1.39L15.21 6 2 13.89V3.39L15.29 2l13.28 1.39V13.9z"/></g></g></svg>