<svg id="Layer_2" xmlns="http://www.w3.org/2000/svg" viewBox="0 0 154 64"><style>.st0{fill:#fff}</style><path class="st0" d="M59.3 42.8c-.8-.2-2.2.4-2.2.4s-3 2.5-17.8-.4c-10.9-2.1-16.6-1.9-16.6-1.9s1.8-12.5 1.3-16c0 0 0-.9-1.1-.9s-1.8.4-1.8 1 .2 4.4-.2 7.1c0 0-1.4 4.3-6.2 3.9S9 32.2 8.6 29.8 8 21 9.2 18.3c0 0 7.2.2 11.7-3.6s4.2-7.2 2.1-8.6S15.9 5 12 8.5s-5.1 7-5.1 7-5.6-1.2-4.3-7.1C4 2.3 12.4 3 12.4 3c1.8.3 1.8.5 2.4-.1S15.8.8 13 .7 2 2 .5 7.5c-1.7 5.8 1.4 10 5.6 10.6 0 0-2.3 10.1.5 15.1s6.9 4.9 8.6 4.9 4.6-.9 5.4-2.2c0 0-.4 3.6-.7 4.9 0 0-6.9-.1-9.1 1-3.7 1.9-2.9 6.5-1.5 8.1 1.2 1.4 4.8 2.1 7.4.9 2.7-1.3 4.9-3.7 5.5-7.7 0 0 6.4-.5 12.5 1.4s14.8 3.6 17.3 3.6 8-.7 8.3-2.9c.4-1.5-.2-2.2-1-2.4zM15.9 9.3s3.3-2.5 4.8-.9c0 0 1.2 1.3.1 2.8-.7.9-2.4 3.6-10.7 4.9 0 0 2.6-4.5 5.8-6.8zm.2 38.9s-4.5 2.5-5-.9c-.3-2.2.9-3.2 1.7-3.6s1.9-.9 6.6-.7c-.1.1-.1 3.4-3.3 5.2z"/><path class="st0" d="M73.6 24.5V31.4c0 .9-.4 1.7-.9 2.5-.3.5-.7 1.1-1.2 1.5-.5.5-.9-.6-1.1-1-1.4-2.9-.7-6.8-.2-9.9.3-1.5-2.7-1.1-2.9.2-.3 1.9-.9 5.1-.5 7.9-.6.1-1.2.4-1.3.7-.5 1.1-2 4.7-3.8 3.3-1.3-1-1.5-3.7-1.6-5.3-.2-2.1.2-4.3.8-6.3-.1.2 1.1-2.8 1.7-1.7.3.7 0 2.6-.6 3.1-1.6 1.2.9 1.7 1.8 1 1.8-1.4 3-5.7-.1-6.2-3.5-.6-5.4 2.9-6.2 5.7-.3 1.3-.6 3.1-.5 4.9-.5.8-2.1 3.5-3 4-1.1.6-1.1-.2-1.1-.8s.5-5.1.8-8.3c.2-2-.1-2.8-.5-3.6s-4-2.8-7.1.8c-2.2 2.5-2.9 4.9-3.1 7.1-.2.4-.4.9-.7 1.4-1.5 2.8-3.4 3.9-4.1 2-.6-1.7-.9-3.7-.8-6.2 0-.1 3.5-5 5.1-11.8s1.2-10.1.4-10.6-4.2-1.9-6.3 6.2c-1.5 6-2.1 12.5-1.6 17.9-.3.7-.7 1.5-1.2 2.4-1.5 2.8-3.4 3.9-4.1 2-.6-1.7-.9-3.7-.8-6.2 0-.1 3.5-5 5.1-11.8s1.2-10.1.4-10.6-4.2-1.9-6.3 6.2S25.6 29 27.6 35c0 0 1.1 3.4 3.1 3.1 1.7-.2 3.7-1.8 4.8-4.9.1.6.3 1.2.5 1.8 0 0 1.1 3.4 3.1 3.1 1.4-.2 3-1.3 4.1-3.4.7 1.8 2.2 3.3 4.2 3 2.7-.5 3.2-1.9 3.2-1.9s-.1 2.4 1.7 2.4c1.5 0 2.7-.9 3.9-3.2.4-.8.6-1.2.8-1.5.4 2.1 1.2 4.1 3 4.8 3 1.3 5.6-1.2 7.2-3.6.5 1.2 1.2 2.2 2.5 2.6 1.3.5 2.7 0 3.8-.9v3.5c-.6 0-1.2.1-1.5.4-3.2 2.8-4.6 6.2-4.2 10.5.2 2.5 2.6 3.6 4.7 2.7 3.1-1.3 3.6-6 3.8-8.8.6-6.8.1-13.9.1-20.8.1-1-2.8-.5-2.8.6zM30.3 13.3c.7-2.7 1.3-3.7 2-3.7s.9.7.5 3-2 8.6-4.1 12.8c-.1-.1.9-9.5 1.6-12.1zm8.4 0c.7-2.7 1.3-3.7 2-3.7s.9.7.5 3-2 8.6-4.1 12.8c-.1-.1.9-9.5 1.6-12.1zm12.8 12.4c-.1.6-.5 4.3-1 6.3s-1 2.8-2.6 3.4c-1.7.7-2.4-1.4-2.4-1.4-1.1-3.2.4-6 1.7-7.9s2.6-2.1 3.3-2c.3.1 1.2.5 1 1.6zm22 18.1c0 2.7-.4 5.4-1.6 7.8-.7.1-1-.1-1.2-1.2-.1-1.1-.1-2.2 0-3.3.2-2 1.4-3.7 2.8-5.2v1.9zM92.3 21.6c-2.5-1.2-4.8-3.3-5.7-6-1.3-3.8 2.9-6.6 6.3-6.5 3.5.2 5.1 3.6 5 6.7-.1 1.1-.7 3.6-2.1 2.3-1-.9-1.4-2.4-1.6-3.6-.2-1.2-3.1-.5-2.9.8.6 3.7 4.5 7.7 7.9 3.9 3-3.4 1.7-9.5-2.6-11.2-4.5-2-10.1 0-12.5 4.3-2.7 4.9 2.7 9.6 6.6 11.3 6.2 3.3 6.5 14.1-1.8 14.1-3.4 0-6.6-2.4-7.7-5.6-.6-1.7-.3-7.6 2-8 1.8-.4 1.3-2-.5-1.7-3.7.7-5.1 5.5-4.7 8.9.6 5.3 5.6 8.3 10.6 8.3 4.7 0 8.7-2.9 9.6-7.5 1-4.6-1.8-8.9-5.9-10.5z"/><path class="st0" d="M110.9 37.5c-2.9-1.6-1.2-7.6-.8-9.9.3-1.5 1.6-3.8-.5-4.3-2.4-.6-5.2 1.7-7.3 3.9 0-2.5.2-5 .6-7.5 3.1-1.6 5.4-3.8 7.2-7.4 1.3-2.6 1.9-8-2.5-6.4-4 1.4-5.4 6-6.6 9.7-.5 1.4-.8 2.9-1.1 4.4-.4.2-.8.3-1.2.4-1.7.5-1.4 1.4.2.9.3-.1.5-.2.8-.3-.8 5.6-.3 11.5.2 17 0 .5 3 0 2.9-.8-.2-2.5-.4-4.9-.5-7.4.3-.1.5-.2.6-.4.9-1.2 2-2.2 3.1-3.2.3-.3.6-.5.9-.8.2-.1.3-.2.5-.3.7-.5.8-.5.4 0-.1.9-.5 1.9-.6 2.8-.5 3-2.1 8.9 1.3 10.8.8.5 3.5-.6 2.4-1.2zm-6.5-24.1c.3-.9.7-1.8 1.1-2.6.5-1.1 1.7-4.8 2.6-3 .7 1.4-.4 3.7-.9 5.1-.8 2.2-2.3 4-4 5.3.3-1.6.7-3.2 1.2-4.8z"/><path class="st0" d="M121.6 30.5c0-3.3-.4-7.5-4.3-7.9-4.3-.4-6 4.1-6.1 7.5 0 .3.1.5.3.6 0 3.1.8 7.3 4.5 7.2 4.3 0 5.6-3.7 5.6-7.4zm-5 5.5c-2.4-1-2.2-5.2-2.1-7.2 0-.2-.1-.4-.2-.5.3-2 1.1-5 2.9-3.5 1.4 1.2 1.4 4.1 1.5 5.8.1 1.1-.1 6.2-2.1 5.4zM153.1 48.6c-1.1-2.9-3.6-4-6.3-4.1-.3-.7-.7-1.4-1.1-2.1-3.9-5.8-13.2-5-19.5-1.9 0-.9-.1-1.8-.1-2.7 2.5.1 5-.9 6.5-3 1.7-2.4 1.4-6.6.8-9.3-.6-2.5-3.1-2.1-4.9-1.2-.7.3-1.3.7-1.9 1.3.1-.7.1-1.3.2-2 .1-1.5-2.8-1.2-2.9.2-.5 6.2-.3 12.4-.4 18.5-4.3 3.9-5.3 7.5-5.4 12.1 0 2.3 1.9 4 4 2.4 2.9-2.2 3.8-6.6 4.2-10 .2-1.5.2-3 .2-4.5 4.5-2.9 10.6-3.1 15.2-.1.9.6 1.7 1.6 2.3 2.7-1.7.3-3.3.9-4.6 1.5-1.7.8-4.3 2.8-4.1 4.9.1 1.7 1 2.6 2.3 3 .1 0 .2.1.3.1 6.1 1 10.7-2.6 9.8-7.7 3 1.6 4.1 5.4 3 8.7-2.4 7.3-11.6 8.9-16.9 4.1-.6-.5-3.2.6-2.7 1 7.5 6.7 26.7.2 22-11.9zm-29.9-1.8c-.1 1.7-.5 3.5-1.1 5.1-.2.5-.5 1.1-.8 1.6 0 0-.3.1-.3-.7 0-2.9.8-5.6 2.3-7.9-.1.7-.1 1.3-.1 1.9zm3.1-17.9c.1-.1.1-.1.1-.2.5-.9 1.2-1.7 1.9-2.5.5-.6 1.1-1.1 1.8-1.5.3.2.7 1 .8 2.1.3 2.8.4 10.1-3.9 9.4-.2 0-.6 0-.9.2-.1-2.5 0-5 .2-7.5zm13.1 23.8c-1.7-.4-1.6-2-1.3-3.1.5-2.5 3.6-3.9 6.1-4 1.3 3.6.3 7.9-4.8 7.1z"/></svg>