<svg id="Layer_1" xmlns="http://www.w3.org/2000/svg" viewBox="0 0 80 140"><style>.st0{fill:#e84d37}</style><path class="st0" d="M40 7.1c15.6 0 28.3 12.7 28.3 28.3 0 5.1-1.4 9.9-3.7 14 4.5.6 8 4.5 8 9.2 0 5.1-4.2 9.3-9.3 9.3-4.7 0-8.5-3.5-9.2-8-.4.2-.7.4-1.1.6-1 6.3-6.4 11-13 11-6.5 0-12-4.8-13-11-.4-.2-.7-.4-1.1-.6-.6 4.5-4.5 8-9.2 8-5.1 0-9.3-4.2-9.3-9.3 0-4.7 3.5-8.5 8-9.2-2.4-4.1-3.7-8.9-3.7-14C11.7 19.8 24.4 7.1 40 7.1m0-7C20.5.1 4.7 15.9 4.7 35.4c0 3.6.6 7.3 1.7 10.7-3.6 3-5.9 7.6-5.9 12.5 0 9 7.3 16.3 16.3 16.3 3.2 0 6.1-.9 8.7-2.5 3.7 3.8 8.9 6.2 14.6 6.2s10.9-2.3 14.6-6.2c2.5 1.6 5.5 2.5 8.7 2.5 9 0 16.3-7.3 16.3-16.3 0-5-2.3-9.5-5.9-12.5 1.1-3.5 1.7-7.1 1.7-10.7C75.3 15.9 59.5.1 40 .1z"/><path class="st0" d="M63.2 78.9c-2.8 0-5.6-.6-8-1.7-.4.3-.8.6-1.1.9l.5.5-3.9 3.9-1.7-1.7c-.7.3-1.4.5-2.1.7l2.4 2.4-3.9 3.9-3.9-3.9 1.6-1.6c-1 .1-2 .2-3 .2s-2-.1-2.9-.2l1.5 1.5-3.9 3.9-3.9-3.9 2.3-2.3c-.7-.2-1.4-.5-2.1-.7l-1.6 1.6-3.9-3.9.5-.5-1.2-.9a19.8 19.8 0 0 1-8 1.7h-.6c-.1.5 0 1.1.2 1.6l20.4 57.1c0 .1.1.1.1.2s.1.1.1.2c.1.1.2.3.2.4l.1.1c.1.2.3.3.4.5l.1.1c.1.1.3.2.4.3.1 0 .1.1.2.1.1.1.3.1.4.2 0 0 .1 0 .1.1h.1c.1 0 .3.1.4.1H41.1c.1 0 .3-.1.4-.1h.1s.1 0 .1-.1c.1-.1.3-.1.4-.2.1 0 .1-.1.2-.1.1-.1.3-.2.4-.3l.1-.1c.2-.1.3-.3.4-.5l.1-.1c.1-.1.2-.3.2-.4 0-.1.1-.1.1-.2s.1-.1.1-.2l20.4-57.1c.2-.5.2-1.1.2-1.6-.7.1-.9.1-1.1.1zM49.3 94.5l-3.9 3.9-3.9-3.9 3.9-3.9 3.9 3.9zm-13.2 5.4L40 96l3.9 3.9-3.9 3.9-3.9-3.9zm7.8 10.6l-3.9 3.9-3.9-3.9 3.9-3.9 3.9 3.9zM40 85.3l3.9 3.9-3.9 3.9-3.9-3.9 3.9-3.9zm-1.4 9.2l-3.9 3.9-3.9-3.9 3.9-3.9 3.9 3.9zM23.7 80.4l.4-.4 3.9 3.9-2.2 2.2-2.1-5.7zm2.8 7.8l2.9-2.9 3.9 3.9-3.9 3.9-1.8-1.8-1.1-3.1zm2.8 7.9l.1-.1 3.9 3.9-2 2-2-5.8zm4.2 11.8l-1.4-4 2.6-2.6 3.9 3.9-3.9 3.9-1.2-1.2zm3.4 9.6l-1.9-5.2 3.5 3.5-1.6 1.7zM40 126l-2.3-6.5 2.4-2.4 2.3 2.3L40 126zm3.1-8.6l-1.6-1.6 3.4-3.4-1.8 5zm3.3-9.4l-1.1 1.1-3.9-3.9 3.9-3.9 2.6 2.6-1.5 4.1zm2.3-6.3l-1.9-1.9 3.9-3.9-2 5.8zm3.6-10.2l-1.7 1.7-3.9-3.9 3.9-3.9 2.8 2.8-1.1 3.3zm1.9-5.4L52 83.9l4-3.9.3.3-2.1 5.8z"/></svg>